<svg xmlns="http://www.w3.org/2000/svg" width="1400" height="900" viewBox="0 0 1400 900">
  <defs>
    <linearGradient id="pcbBg" x1="0" y1="0" x2="1" y2="1">
      <stop offset="0" stop-color="#0b2a1e"/>
      <stop offset="1" stop-color="#133c2b"/>
    </linearGradient>
  </defs>
  <rect width="1400" height="900" fill="url(#pcbBg)"/>

  <g stroke="#36f7a3" stroke-width="8" fill="none" opacity="0.92">
    <path d="M90 130 H420 V260 H760 V160 H1210 V300"/>
    <path d="M110 320 H320 V520 H690 V760 H1270"/>
    <path d="M80 760 H360 V620 H610 V470 H900 V620 H1180 V520 H1330"/>
  </g>

  <g fill="#d9a760" stroke="#bb8744" stroke-width="3" opacity="0.96">
    <circle cx="420" cy="130" r="17"/><circle cx="420" cy="260" r="17"/><circle cx="760" cy="260" r="17"/>
    <circle cx="760" cy="160" r="17"/><circle cx="1210" cy="160" r="17"/><circle cx="1210" cy="300" r="17"/>
    <circle cx="320" cy="320" r="17"/><circle cx="320" cy="520" r="17"/><circle cx="690" cy="520" r="17"/>
    <circle cx="690" cy="760" r="17"/><circle cx="360" cy="620" r="17"/><circle cx="610" cy="620" r="17"/>
    <circle cx="610" cy="470" r="17"/><circle cx="900" cy="470" r="17"/><circle cx="900" cy="620" r="17"/>
    <circle cx="1180" cy="620" r="17"/><circle cx="1180" cy="520" r="17"/>
  </g>

  <rect x="980" y="80" width="300" height="180" rx="16" fill="#112b1f" stroke="#36f7a3" stroke-width="3"/>
  <text x="1010" y="140" font-size="34" fill="#9bffca" font-family="monospace">REV B</text>
  <text x="1010" y="188" font-size="30" fill="#9bffca" font-family="monospace">IMPACT BUS</text>
  <text x="1010" y="236" font-size="24" fill="#9bffca" font-family="monospace">TRACES + VIAS</text>

  <text x="90" y="865" font-size="36" fill="#95ffbf" font-family="monospace">PCB SYSTEM MAP / PRODUCTION LAYER</text>
</svg>
